<svg class="main-svg" xmlns="http://www.w3.org/2000/svg" xmlns:xlink="http://www.w3.org/1999/xlink" width="300" height="300" style="" viewBox="0 0 300 300"><rect x="0" y="0" width="300" height="300" style="fill: rgb(255, 255, 255); fill-opacity: 1;"/><defs id="defs-20f611"><g class="clips"/><g class="gradients"/><g class="patterns"/></defs><g class="bglayer"/><g class="layer-below"><g class="imagelayer"/><g class="shapelayer"/></g><g class="cartesianlayer"/><g class="polarlayer"/><g class="ternarylayer"/><g class="geolayer"/><g class="funnelarealayer"/><g class="pielayer"><g class="trace" stroke-linejoin="round" style="opacity: 1;"><g class="slice"><path class="surface" d="M166.14431779575267,124.71441116149866a30,30 0 1 0 -19.280171693782282,55.12124569954954l-2.0905692653530785,19.890437907365467a50,50 0 1 1 32.13361948963714,-91.86874283258257Z" style="pointer-events: all; stroke-width: 0; fill: rgb(31, 119, 180); fill-opacity: 1; stroke: rgb(68, 68, 68); stroke-opacity: 1;"/><g class="slicetext"><text data-notex="1" class="slicetext" transform="translate(67.4327151044767,128.40980821703243)" text-anchor="middle" x="0" y="0" style="font-family: 'Open Sans', verdana, arial, sans-serif; font-size: 12px; fill: rgb(68, 68, 68); fill-opacity: 1; white-space: pre;"><tspan class="line" dy="0em" x="0" y="0">RNase H1</tspan><tspan class="line" dy="1.3em" x="0" y="0">35</tspan></text></g></g><g class="slice"><path class="surface" d="M146.8641461019704,179.8356568610482a30,30 0 0 0 17.867453172906,-3.7017711414606578l9.821066183250922,17.422590479725027a50,50 0 0 1 -29.77908862151,6.169618569101097Z" style="pointer-events: all; stroke-width: 0; fill: rgb(255, 127, 14); fill-opacity: 1; stroke: rgb(68, 68, 68); stroke-opacity: 1;"/><g class="slicetext"><text data-notex="1" class="slicetext" transform="translate(187.8115361023097,229.37297810651782)" text-anchor="middle" x="0" y="0" style="font-family: 'Open Sans', verdana, arial, sans-serif; font-size: 12px; fill: rgb(68, 68, 68); fill-opacity: 1; white-space: pre;"><tspan class="line" dy="0em" x="0" y="0">MNase</tspan><tspan class="line" dy="1.3em" x="0" y="0">6</tspan></text></g><path class="textline" stroke-width="1.5" d="M160.1435673523097,198.96027002957763V232.67766560651782h8.15234375" fill="none" style="stroke: rgb(68, 68, 68); stroke-opacity: 1;"/></g><g class="slice"><path class="surface" d="M164.73159927487637,176.13388571958754a30,30 0 0 0 12.41759635508596,-13.369827718856198l18.09946375330823,8.509372000487563a50,50 0 0 1 -20.695993925143267,22.283046198093665Z" style="pointer-events: all; stroke-width: 0; fill: rgb(44, 160, 44); fill-opacity: 1; stroke: rgb(68, 68, 68); stroke-opacity: 1;"/><g class="slicetext"><text data-notex="1" class="slicetext" transform="translate(217.94450201457263,196.76360310651782)" text-anchor="middle" x="0" y="0" style="font-family: 'Open Sans', verdana, arial, sans-serif; font-size: 12px; fill: rgb(68, 68, 68); fill-opacity: 1; white-space: pre;"><tspan class="line" dy="0em" x="0" y="0">RNase A</tspan><tspan class="line" dy="1.3em" x="0" y="0">6</tspan></text></g><path class="textline" stroke-width="1.5" d="M186.63590826457263,184.02661055159356V200.06829060651782h8.15234375" fill="none" style="stroke: rgb(68, 68, 68); stroke-opacity: 1;"/></g><g class="slice"><path class="surface" d="M177.14919562996235,162.76405800073135a30,30 0 0 0 2.7652607401455582,-15.02797056108143l19.94297091340527,-1.5092750402333919a50,50 0 0 1 -4.608767900242597,25.046617601802385Z" style="pointer-events: all; stroke-width: 0; fill: rgb(214, 39, 40); fill-opacity: 1; stroke: rgb(68, 68, 68); stroke-opacity: 1;"/><g class="slicetext"><text data-notex="1" class="slicetext" transform="translate(247.52990513304536,164.15422810651782)" text-anchor="middle" x="0" y="0" style="font-family: 'Open Sans', verdana, arial, sans-serif; font-size: 12px; fill: rgb(68, 68, 68); fill-opacity: 1; white-space: pre;"><tspan class="line" dy="0em" x="0" y="0">Actinomycin D</tspan><tspan class="line" dy="1.3em" x="0" y="0">5</tspan></text></g><path class="textline" stroke-width="1.5" d="M199.17443638304536,159.04846983803483V167.45891560651782h8.15234375" fill="none" style="stroke: rgb(68, 68, 68); stroke-opacity: 1;"/></g><g class="slice"><path class="surface" d="M179.9144563701079,147.7360874396499a30,30 0 0 0 -3.4099269364842186,-11.789909677823264l17.669686289082456,-9.369214825448902a50,50 0 0 1 5.683211560807031,19.649849463038773Z" style="pointer-events: all; stroke-width: 0; fill: rgb(148, 103, 189); fill-opacity: 1; stroke: rgb(68, 68, 68); stroke-opacity: 1;"/><g class="slicetext"><text data-notex="1" class="slicetext" transform="translate(228.87125657111415,131.54485310651782)" text-anchor="middle" x="0" y="0" style="font-family: 'Open Sans', verdana, arial, sans-serif; font-size: 12px; fill: rgb(68, 68, 68); fill-opacity: 1; white-space: pre;"><tspan class="line" dy="0em" x="0" y="0">RNase T</tspan><tspan class="line" dy="1.3em" x="0" y="0">4</tspan></text></g></g><g class="slice"><path class="surface" d="M176.50452943362367,135.94617776182665a30,30 0 0 0 -3.4351584925325964,-5.124397814332624l15.379580627394057,-12.785480035003985a50,50 0 0 1 5.725264154220994,8.540663023887706Z" style="pointer-events: all; stroke-width: 0; fill: rgb(140, 86, 75); fill-opacity: 1; stroke: rgb(68, 68, 68); stroke-opacity: 1;"/><g class="slicetext"><text data-notex="1" class="slicetext" transform="translate(214.52780060788083,98.93547810651783)" text-anchor="middle" x="0" y="0" style="font-family: 'Open Sans', verdana, arial, sans-serif; font-size: 12px; fill: rgb(68, 68, 68); fill-opacity: 1; white-space: pre;"><tspan class="line" dy="0em" x="0" y="0">Input</tspan><tspan class="line" dy="1.3em" x="0" y="0">2</tspan></text></g><path class="textline" stroke-width="1.5" d="M191.53170685788083,122.15907103792952V102.24016560651783h8.152343749999996" fill="none" style="stroke: rgb(68, 68, 68); stroke-opacity: 1;"/></g><g class="slice"><path class="surface" d="M173.06937094109108,130.82177994749404a30,30 0 0 0 -2.0941942445993504,-2.270368771725567l13.98345113099449,-14.299059216154362a50,50 0 0 1 3.4903237409989174,3.7839479528759448Z" style="pointer-events: all; stroke-width: 0; fill: rgb(227, 119, 194); fill-opacity: 1; stroke: rgb(68, 68, 68); stroke-opacity: 1;"/><g class="slicetext"><text data-notex="1" class="slicetext" transform="translate(204.23298898632498,66.32610310651783)" text-anchor="middle" x="0" y="0" style="font-family: 'Open Sans', verdana, arial, sans-serif; font-size: 12px; fill: rgb(68, 68, 68); fill-opacity: 1; white-space: pre;"><tspan class="line" dy="0em" x="0" y="0">IgG</tspan><tspan class="line" dy="1.3em" x="0" y="0">1</tspan></text></g><path class="textline" stroke-width="1.5" d="M186.75252023632498,116.09937675678334V69.63079060651783h8.15234375" fill="none" style="stroke: rgb(68, 68, 68); stroke-opacity: 1;"/></g><g class="slice"><path class="surface" d="M170.97517669649173,128.55141117576846a30,30 0 0 0 -2.3165363355941144,-2.0430083944056405l12.439093573931748,-15.66106481242479a50,50 0 0 1 3.8608938926568577,3.4050139906760677Z" style="pointer-events: all; stroke-width: 0; fill: rgb(127, 127, 127); fill-opacity: 1; stroke: rgb(68, 68, 68); stroke-opacity: 1;"/><g class="slicetext"><text data-notex="1" class="slicetext" transform="translate(206.22437517214962,33.716728106517834)" text-anchor="middle" x="0" y="0" style="font-family: 'Open Sans', verdana, arial, sans-serif; font-size: 12px; fill: rgb(68, 68, 68); fill-opacity: 1; white-space: pre;"><tspan class="line" dy="0em" x="0" y="0">NBSS</tspan><tspan class="line" dy="1.3em" x="0" y="0">1</tspan></text></g><path class="textline" stroke-width="1.5" d="M183.07203142214962,112.50012349870539V37.021415606517834h8.15234375" fill="none" style="stroke: rgb(68, 68, 68); stroke-opacity: 1;"/></g><g class="slice"><path class="surface" d="M168.6586403608976,126.50840278136282a30,30 0 0 0 -2.5143225651449206,-1.793991619864137l10.762878530501801,-16.857059225667548a50,50 0 0 1 4.190537608574868,2.989986033106895Z" style="pointer-events: all; stroke-width: 0; fill: rgb(188, 189, 34); fill-opacity: 1; stroke: rgb(68, 68, 68); stroke-opacity: 1;"/><g class="slicetext"><text data-notex="1" class="slicetext" transform="translate(204.49018959754304,1.1073531065178344)" text-anchor="middle" x="0" y="0" style="font-family: 'Open Sans', verdana, arial, sans-serif; font-size: 12px; fill: rgb(68, 68, 68); fill-opacity: 1; white-space: pre;"><tspan class="line" dy="0em" x="0" y="0">WKKD</tspan><tspan class="line" dy="1.3em" x="0" y="0">1</tspan></text></g><path class="textline" stroke-width="1.5" d="M179.04097084754304,109.29837826041626V4.412040606517834h8.15234375" fill="none" style="stroke: rgb(68, 68, 68); stroke-opacity: 1;"/></g></g></g><g class="iciclelayer"/><g class="treemaplayer"/><g class="sunburstlayer"/><g class="glimages"/><defs id="topdefs-20f611"><g class="clips"/></defs><g class="layer-above"><g class="imagelayer"/><g class="shapelayer"/></g><g class="infolayer"><g class="g-gtitle"/></g></svg>