<svg class="main-svg" xmlns="http://www.w3.org/2000/svg" xmlns:xlink="http://www.w3.org/1999/xlink" width="700" height="500" style="" viewBox="0 0 700 500"><rect x="0" y="0" width="700" height="500" style="fill: rgb(255, 255, 255); fill-opacity: 1;"/><defs id="defs-458b65"><g class="clips"/><g class="gradients"/><g class="patterns"/></defs><g class="bglayer"/><g class="layer-below"><g class="imagelayer"/><g class="shapelayer"/></g><g class="cartesianlayer"/><g class="polarlayer"/><g class="ternarylayer"/><g class="geolayer"/><g class="funnelarealayer"/><g class="pielayer"><g class="trace" stroke-linejoin="round" style="opacity: 1;"><g class="slice"><path class="surface" d="M415.2235924425652,187.98481646494827a90,90 0 0 0 -149.79592831329694,92.79699643436192l-56.381557247154504,20.521208599540117a150,150 0 0 1 249.65988052216156,-154.66166072393654Z" style="pointer-events: all; stroke-width: 0; fill: rgb(0, 178, 255); fill-opacity: 1; stroke: rgb(68, 68, 68); stroke-opacity: 1;"/><g class="slicetext"><text data-notex="1" class="slicetext" transform="translate(286.80486509763585,144.68367137668503)" text-anchor="middle" x="0" y="0" style="font-family: 'Open Sans', verdana, arial, sans-serif; font-size: 12px; fill: rgb(68, 68, 68); fill-opacity: 1; white-space: pre;"><tspan class="line" dy="0em" x="0" y="0">DRIP</tspan><tspan class="line" dy="1.3em" x="0" y="0">352</tspan></text></g></g><g class="slice"><path class="surface" d="M265.42766412926824,280.7818128993102a90,90 0 0 0 54.776628261085484,54.14295267611233l-19.863805073097513,56.61651038361501a150,150 0 0 1 -91.29438043514247,-90.23825446018722Z" style="pointer-events: all; stroke-width: 0; fill: rgb(36, 183, 0); fill-opacity: 1; stroke: rgb(68, 68, 68); stroke-opacity: 1;"/><g class="slicetext"><text data-notex="1" class="slicetext" transform="translate(265.34539810892056,332.04034114121646)" text-anchor="middle" x="0" y="0" style="font-family: 'Open Sans', verdana, arial, sans-serif; font-size: 12px; fill: rgb(255, 255, 255); fill-opacity: 1; white-space: pre;"><tspan class="line" dy="0em" x="0" y="0">MapR</tspan><tspan class="line" dy="1.3em" x="0" y="0">114</tspan></text></g></g><g class="slice"><path class="surface" d="M320.2042923903537,334.9247655754225a90,90 0 0 0 54.267340256781864,1.6843517020538172l16.314421764757068,57.73941151831755a150,150 0 0 1 -90.44556709463644,-2.807252836756362Z" style="pointer-events: all; stroke-width: 0; fill: rgb(163, 166, 0); fill-opacity: 1; stroke: rgb(68, 68, 68); stroke-opacity: 1;"/><g class="slicetext"><text data-notex="1" class="slicetext" transform="translate(346.27722834062547,366.63755264571415)" text-anchor="middle" x="0" y="0" style="font-family: 'Open Sans', verdana, arial, sans-serif; font-size: 12px; fill: rgb(68, 68, 68); fill-opacity: 1; white-space: pre;"><tspan class="line" dy="0em" x="0" y="0">ssDRIP</tspan><tspan class="line" dy="1.3em" x="0" y="0">79</tspan></text></g></g><g class="slice"><path class="surface" d="M374.4716326471356,336.60911727747634a90,90 0 0 0 34.177517946795376,-18.342894776078115l39.09943372928732,45.51081500093214a150,150 0 0 1 -56.96252991132563,30.571491293463524Z" style="pointer-events: all; stroke-width: 0; fill: rgb(143, 143, 143); fill-opacity: 1; stroke: rgb(68, 68, 68); stroke-opacity: 1;"/><g class="slicetext"><text data-notex="1" class="slicetext" transform="translate(408.2174973404995,355.43146336288754)" text-anchor="middle" x="0" y="0" style="font-family: 'Open Sans', verdana, arial, sans-serif; font-size: 12px; fill: rgb(68, 68, 68); fill-opacity: 1; white-space: pre;"><tspan class="line" dy="0em" x="0" y="0">misc</tspan><tspan class="line" dy="1.3em" x="0" y="0">56</tspan></text></g></g><g class="slice"><path class="surface" d="M408.649150593931,318.2662225013982a90,90 0 0 0 22.695888701435866,-29.756683656649294l54.23002619691123,25.673025896499276a150,150 0 0 1 -37.826481169059775,49.59447276108216Z" style="pointer-events: all; stroke-width: 0; fill: rgb(255, 88, 191); fill-opacity: 1; stroke: rgb(68, 68, 68); stroke-opacity: 1;"/><g class="slicetext"><text data-notex="1" class="slicetext" transform="translate(448.7391051687581,322.00517455476387)" text-anchor="middle" x="0" y="0" style="font-family: 'Open Sans', verdana, arial, sans-serif; font-size: 12px; fill: rgb(68, 68, 68); fill-opacity: 1; white-space: pre;"><tspan class="line" dy="0em" x="0" y="0">R-ChIP</tspan><tspan class="line" dy="1.3em" x="0" y="0">54</tspan></text></g></g><g class="slice"><path class="surface" d="M431.34503929536686,288.50953884474893a90,90 0 0 0 8.611640813918763,-35.71746010021802l59.971120072857076,1.861385829687259a150,150 0 0 1 -14.352734689864604,59.52910016703004Z" style="pointer-events: all; stroke-width: 0; fill: rgb(0, 194, 122); fill-opacity: 1; stroke: rgb(68, 68, 68); stroke-opacity: 1;"/><g class="slicetext"><text data-notex="1" class="slicetext" transform="translate(471.10246853934666,275.893664169283)" text-anchor="middle" x="0" y="0" style="font-family: 'Open Sans', verdana, arial, sans-serif; font-size: 12px; fill: rgb(255, 255, 255); fill-opacity: 1; white-space: pre;"><tspan class="line" dy="0em" x="0" y="0">sDRIP</tspan><tspan class="line" dy="1.3em" x="0" y="0">53</tspan></text></g></g><g class="slice"><path class="surface" d="M439.95668010928557,252.7920787445309a90,90 0 0 0 -3.4431274748368876,-27.599440768060777l57.67570175629915,-16.538241349019927a150,150 0 0 1 5.738545791394813,45.999067946767966Z" style="pointer-events: all; stroke-width: 0; fill: rgb(0, 194, 200); fill-opacity: 1; stroke: rgb(68, 68, 68); stroke-opacity: 1;"/><g class="slicetext"><text data-notex="1" class="slicetext" transform="translate(523.2329112127264,227.87635733050757)" text-anchor="middle" x="0" y="0" style="font-family: 'Open Sans', verdana, arial, sans-serif; font-size: 12px; fill: rgb(68, 68, 68); fill-opacity: 1; white-space: pre;"><tspan class="line" dy="0em" x="0" y="0">DRIPc</tspan><tspan class="line" dy="1.3em" x="0" y="0">40</tspan></text></g></g><g class="slice"><path class="surface" d="M436.51355263444873,225.1926379764701a90,90 0 0 0 -4.580887947495512,-12.435603181932604l54.62177645796881,-24.828643470308332a150,150 0 0 1 7.634813245825853,20.726005303221008Z" style="pointer-events: all; stroke-width: 0; fill: rgb(147, 141, 255); fill-opacity: 1; stroke: rgb(68, 68, 68); stroke-opacity: 1;"/><g class="slicetext"><text data-notex="1" class="slicetext" transform="translate(515.9530729413276,192.89786510772154)" text-anchor="middle" x="0" y="0" style="font-family: 'Open Sans', verdana, arial, sans-serif; font-size: 12px; fill: rgb(68, 68, 68); fill-opacity: 1; white-space: pre;"><tspan class="line" dy="0em" x="0" y="0">qDRIP</tspan><tspan class="line" dy="1.3em" x="0" y="0">19</tspan></text></g></g><g class="slice"><path class="surface" d="M431.9326646869532,212.7570347945375a90,90 0 0 0 -5.24068256287216,-9.856290392472753l51.1279880827207,-31.399503731956834a150,150 0 0 1 8.734470938120268,16.427150654121256Z" style="pointer-events: all; stroke-width: 0; fill: rgb(239, 98, 251); fill-opacity: 1; stroke: rgb(68, 68, 68); stroke-opacity: 1;"/><g class="slicetext"><text data-notex="1" class="slicetext" transform="translate(520.2976076788391,160.28849010772154)" text-anchor="middle" x="0" y="0" style="font-family: 'Open Sans', verdana, arial, sans-serif; font-size: 12px; fill: rgb(68, 68, 68); fill-opacity: 1; white-space: pre;"><tspan class="line" dy="0em" x="0" y="0">RLCnT-S96</tspan><tspan class="line" dy="1.3em" x="0" y="0">16</tspan></text></g><path class="textline" stroke-width="1.5" d="M482.4421389288391,179.57926558211642V163.59317760772154h8.15234375" fill="none" style="stroke: rgb(68, 68, 68); stroke-opacity: 1;"/></g><g class="slice"><path class="surface" d="M426.69198212408105,202.90074440206476a90,90 0 0 0 -5.55664186739269,-8.034793469452984l47.42356017112557,-36.756032711592155a150,150 0 0 1 9.261069778987817,13.391322449088307Z" style="pointer-events: all; stroke-width: 0; fill: rgb(220, 142, 0); fill-opacity: 1; stroke: rgb(68, 68, 68); stroke-opacity: 1;"/><g class="slicetext"><text data-notex="1" class="slicetext" transform="translate(494.89860804209934,127.67911510772154)" text-anchor="middle" x="0" y="0" style="font-family: 'Open Sans', verdana, arial, sans-serif; font-size: 12px; fill: rgb(68, 68, 68); fill-opacity: 1; white-space: pre;"><tspan class="line" dy="0em" x="0" y="0">RDIP</tspan><tspan class="line" dy="1.3em" x="0" y="0">14</tspan></text></g><path class="textline" stroke-width="1.5" d="M473.37126429209934,164.67983153457226V130.98380260772154h8.15234375" fill="none" style="stroke: rgb(68, 68, 68); stroke-opacity: 1;"/></g><g class="slice"><path class="surface" d="M421.1353402566883,194.86595093261178a90,90 0 0 0 -5.91174781412312,-6.881134467663458l43.482394961710156,-41.34345569003446a150,150 0 0 1 9.852913023538534,11.468557446105763Z" style="pointer-events: all; stroke-width: 0; fill: rgb(254, 114, 103); fill-opacity: 1; stroke: rgb(68, 68, 68); stroke-opacity: 1;"/><g class="slicetext"><text data-notex="1" class="slicetext" transform="translate(504.16375625233036,95.06974010772154)" text-anchor="middle" x="0" y="0" style="font-family: 'Open Sans', verdana, arial, sans-serif; font-size: 12px; fill: rgb(68, 68, 68); fill-opacity: 1; white-space: pre;"><tspan class="line" dy="0em" x="0" y="0">RLCnT-HBD</tspan><tspan class="line" dy="1.3em" x="0" y="0">13</tspan></text></g><path class="textline" stroke-width="1.5" d="M463.77703750233036,152.25141567678176V98.37442760772154h8.15234375" fill="none" style="stroke: rgb(68, 68, 68); stroke-opacity: 1;"/></g></g></g><g class="iciclelayer"/><g class="treemaplayer"/><g class="sunburstlayer"/><g class="glimages"/><defs id="topdefs-458b65"><g class="clips"/></defs><g class="layer-above"><g class="imagelayer"/><g class="shapelayer"/></g><g class="infolayer"><g class="g-gtitle"><text class="gtitle" x="105" y="50" text-anchor="start" dy="0em" style="font-family: 'Open Sans', verdana, arial, sans-serif; font-size: 17px; fill: rgb(68, 68, 68); opacity: 1; font-weight: normal; white-space: pre;">Mode</text></g></g></svg>