<svg class="main-svg" xmlns="http://www.w3.org/2000/svg" xmlns:xlink="http://www.w3.org/1999/xlink" width="700" height="500" style="" viewBox="0 0 700 500"><rect x="0" y="0" width="700" height="500" style="fill: rgb(255, 255, 255); fill-opacity: 1;"/><defs id="defs-33f3b9"><g class="clips"/><g class="gradients"/><g class="patterns"/></defs><g class="bglayer"/><g class="layer-below"><g class="imagelayer"/><g class="shapelayer"/></g><g class="cartesianlayer"/><g class="polarlayer"/><g class="ternarylayer"/><g class="geolayer"/><g class="funnelarealayer"/><g class="pielayer"><g class="trace" stroke-linejoin="round" style="opacity: 1;"><g class="slice"><path class="surface" d="M413.99921023012143,186.72203314011492a90,90 0 0 0 -148.57154610085323,94.05977975919525l-56.381557247154504,20.521208599540117a150,150 0 0 1 247.61924350142203,-156.76629959865875Z" style="pointer-events: all; stroke-width: 0; fill: rgb(0, 178, 255); fill-opacity: 1; stroke: rgb(68, 68, 68); stroke-opacity: 1;"/><g class="slicetext"><text data-notex="1" class="slicetext" transform="translate(285.81105783367127,145.30606403859898)" text-anchor="middle" x="0" y="0" style="font-family: 'Open Sans', verdana, arial, sans-serif; font-size: 12px; fill: rgb(68, 68, 68); fill-opacity: 1; white-space: pre;"><tspan class="line" dy="0em" x="0" y="0">DRIP</tspan><tspan class="line" dy="1.3em" x="0" y="0">299</tspan></text></g></g><g class="slice"><path class="surface" d="M265.42766412926824,280.7818128993102a90,90 0 0 0 40.99300673321579,47.96361282132488l-29.05288609167731,52.49695048042337a150,150 0 0 1 -68.32167788869299,-79.93935470220813Z" style="pointer-events: all; stroke-width: 0; fill: rgb(163, 166, 0); fill-opacity: 1; stroke: rgb(68, 68, 68); stroke-opacity: 1;"/><g class="slicetext"><text data-notex="1" class="slicetext" transform="translate(258.77778682004623,324.6600982853215)" text-anchor="middle" x="0" y="0" style="font-family: 'Open Sans', verdana, arial, sans-serif; font-size: 12px; fill: rgb(68, 68, 68); fill-opacity: 1; white-space: pre;"><tspan class="line" dy="0em" x="0" y="0">ssDRIP</tspan><tspan class="line" dy="1.3em" x="0" y="0">79</tspan></text></g></g><g class="slice"><path class="surface" d="M306.42067086248403,328.74542572063507a90,90 0 0 0 43.78332848579316,11.254343080545226l0.13599956551813774,59.99984586745352a150,150 0 0 1 -72.9722141429886,-18.757238467575377Z" style="pointer-events: all; stroke-width: 0; fill: rgb(143, 143, 143); fill-opacity: 1; stroke: rgb(68, 68, 68); stroke-opacity: 1;"/><g class="slicetext"><text data-notex="1" class="slicetext" transform="translate(319.9849751640956,362.9171703170411)" text-anchor="middle" x="0" y="0" style="font-family: 'Open Sans', verdana, arial, sans-serif; font-size: 12px; fill: rgb(68, 68, 68); fill-opacity: 1; white-space: pre;"><tspan class="line" dy="0em" x="0" y="0">misc</tspan><tspan class="line" dy="1.3em" x="0" y="0">56</tspan></text></g></g><g class="slice"><path class="surface" d="M350.2039993482772,339.99976880118027a90,90 0 0 0 42.30039738126421,-10.668966090897879l28.336264486360946,52.88720180685493a150,150 0 0 1 -70.50066230210702,17.781610151496466Z" style="pointer-events: all; stroke-width: 0; fill: rgb(36, 183, 0); fill-opacity: 1; stroke: rgb(68, 68, 68); stroke-opacity: 1;"/><g class="slicetext"><text data-notex="1" class="slicetext" transform="translate(379.2307804727996,363.7667840554381)" text-anchor="middle" x="0" y="0" style="font-family: 'Open Sans', verdana, arial, sans-serif; font-size: 12px; fill: rgb(255, 255, 255); fill-opacity: 1; white-space: pre;"><tspan class="line" dy="0em" x="0" y="0">MapR</tspan><tspan class="line" dy="1.3em" x="0" y="0">54</tspan></text></g></g><g class="slice"><path class="surface" d="M392.50439672954144,329.3308027102824a90,90 0 0 0 32.31369836639388,-29.30828132025667l49.878730063956866,33.34834759335049a150,150 0 0 1 -53.8561639439898,48.84713553376112Z" style="pointer-events: all; stroke-width: 0; fill: rgb(255, 88, 191); fill-opacity: 1; stroke: rgb(68, 68, 68); stroke-opacity: 1;"/><g class="slicetext"><text data-notex="1" class="slicetext" transform="translate(431.11421724948013,336.1273853255822)" text-anchor="middle" x="0" y="0" style="font-family: 'Open Sans', verdana, arial, sans-serif; font-size: 12px; fill: rgb(68, 68, 68); fill-opacity: 1; white-space: pre;"><tspan class="line" dy="0em" x="0" y="0">R-ChIP</tspan><tspan class="line" dy="1.3em" x="0" y="0">54</tspan></text></g></g><g class="slice"><path class="surface" d="M424.8180950959353,300.0225213900257a90,90 0 0 0 14.236573693541615,-37.01229591939813l59.36977919298461,8.673483647085064a150,150 0 0 1 -23.72762282256936,61.68715986566355Z" style="pointer-events: all; stroke-width: 0; fill: rgb(0, 194, 122); fill-opacity: 1; stroke: rgb(68, 68, 68); stroke-opacity: 1;"/><g class="slicetext"><text data-notex="1" class="slicetext" transform="translate(464.7252886819868,290.8237564741532)" text-anchor="middle" x="0" y="0" style="font-family: 'Open Sans', verdana, arial, sans-serif; font-size: 12px; fill: rgb(255, 255, 255); fill-opacity: 1; white-space: pre;"><tspan class="line" dy="0em" x="0" y="0">sDRIP</tspan><tspan class="line" dy="1.3em" x="0" y="0">49</tspan></text></g></g><g class="slice"><path class="surface" d="M439.0546687894769,263.0102254706276a90,90 0 0 0 -1.177003862186325,-32.43999662025367l58.58510995152706,-12.953180766417384a150,150 0 0 1 1.961673103643875,54.06666103375612Z" style="pointer-events: all; stroke-width: 0; fill: rgb(0, 194, 200); fill-opacity: 1; stroke: rgb(68, 68, 68); stroke-opacity: 1;"/><g class="slicetext"><text data-notex="1" class="slicetext" transform="translate(524.2880846895544,241.23508206289236)" text-anchor="middle" x="0" y="0" style="font-family: 'Open Sans', verdana, arial, sans-serif; font-size: 12px; fill: rgb(68, 68, 68); fill-opacity: 1; white-space: pre;"><tspan class="line" dy="0em" x="0" y="0">DRIPc</tspan><tspan class="line" dy="1.3em" x="0" y="0">40</tspan></text></g></g><g class="slice"><path class="surface" d="M437.8776649272906,230.57022885037392a90,90 0 0 0 -4.631256834475726,-14.776011104906974l55.49760539520991,-22.80385483635537a150,150 0 0 1 7.718761390792878,24.62668517484496Z" style="pointer-events: all; stroke-width: 0; fill: rgb(147, 141, 255); fill-opacity: 1; stroke: rgb(68, 68, 68); stroke-opacity: 1;"/><g class="slicetext"><text data-notex="1" class="slicetext" transform="translate(518.3332344077305,200.37422989443618)" text-anchor="middle" x="0" y="0" style="font-family: 'Open Sans', verdana, arial, sans-serif; font-size: 12px; fill: rgb(68, 68, 68); fill-opacity: 1; white-space: pre;"><tspan class="line" dy="0em" x="0" y="0">qDRIP</tspan><tspan class="line" dy="1.3em" x="0" y="0">19</tspan></text></g></g><g class="slice"><path class="surface" d="M433.2464080928149,215.79421774546694a90,90 0 0 0 -5.819115191830485,-11.674652726242522l51.61819526732292,-30.586956653850383a150,150 0 0 1 9.698525319717476,19.457754543737536Z" style="pointer-events: all; stroke-width: 0; fill: rgb(239, 98, 251); fill-opacity: 1; stroke: rgb(68, 68, 68); stroke-opacity: 1;"/><g class="slicetext"><text data-notex="1" class="slicetext" transform="translate(522.1032074732566,167.76485489443618)" text-anchor="middle" x="0" y="0" style="font-family: 'Open Sans', verdana, arial, sans-serif; font-size: 12px; fill: rgb(68, 68, 68); fill-opacity: 1; white-space: pre;"><tspan class="line" dy="0em" x="0" y="0">RLCnT-S96</tspan><tspan class="line" dy="1.3em" x="0" y="0">16</tspan></text></g><path class="textline" stroke-width="1.5" d="M484.24773872325653,183.0855423119021V171.06954239443618h8.15234375" fill="none" style="stroke: rgb(68, 68, 68); stroke-opacity: 1;"/></g><g class="slice"><path class="surface" d="M427.42729290098436,204.11956501922444a90,90 0 0 0 -6.431033898640498,-9.432594295084082l47.33083933489592,-36.8753528505731a150,150 0 0 1 10.718389831067498,15.720990491806802Z" style="pointer-events: all; stroke-width: 0; fill: rgb(220, 142, 0); fill-opacity: 1; stroke: rgb(68, 68, 68); stroke-opacity: 1;"/><g class="slicetext"><text data-notex="1" class="slicetext" transform="translate(495.4631598973993,135.15547989443618)" text-anchor="middle" x="0" y="0" style="font-family: 'Open Sans', verdana, arial, sans-serif; font-size: 12px; fill: rgb(68, 68, 68); fill-opacity: 1; white-space: pre;"><tspan class="line" dy="0em" x="0" y="0">RDIP</tspan><tspan class="line" dy="1.3em" x="0" y="0">14</tspan></text></g><path class="textline" stroke-width="1.5" d="M473.9358161473993,165.5019912904568V138.46016739443618h8.15234375" fill="none" style="stroke: rgb(68, 68, 68); stroke-opacity: 1;"/></g><g class="slice"><path class="surface" d="M420.9962590023439,194.68697072414034a90,90 0 0 0 -6.997048772222319,-7.964937584025338l42.666140153414375,-42.18531123992333a150,150 0 0 1 11.661747953703866,13.274895973375564Z" style="pointer-events: all; stroke-width: 0; fill: rgb(254, 114, 103); fill-opacity: 1; stroke: rgb(68, 68, 68); stroke-opacity: 1;"/><g class="slicetext"><text data-notex="1" class="slicetext" transform="translate(503.07858274700163,102.54610489443618)" text-anchor="middle" x="0" y="0" style="font-family: 'Open Sans', verdana, arial, sans-serif; font-size: 12px; fill: rgb(68, 68, 68); fill-opacity: 1; white-space: pre;"><tspan class="line" dy="0em" x="0" y="0">RLCnT-HBD</tspan><tspan class="line" dy="1.3em" x="0" y="0">13</tspan></text></g><path class="textline" stroke-width="1.5" d="M462.69186399700163,151.0023041233722V105.85079239443618h8.15234375" fill="none" style="stroke: rgb(68, 68, 68); stroke-opacity: 1;"/></g></g></g><g class="iciclelayer"/><g class="treemaplayer"/><g class="sunburstlayer"/><g class="glimages"/><defs id="topdefs-33f3b9"><g class="clips"/></defs><g class="layer-above"><g class="imagelayer"/><g class="shapelayer"/></g><g class="infolayer"><g class="g-gtitle"><text class="gtitle" x="105" y="50" text-anchor="start" dy="0em" style="font-family: 'Open Sans', verdana, arial, sans-serif; font-size: 17px; fill: rgb(68, 68, 68); opacity: 1; font-weight: normal; white-space: pre;">Mode</text></g></g></svg>