<svg class="main-svg" xmlns="http://www.w3.org/2000/svg" xmlns:xlink="http://www.w3.org/1999/xlink" width="700" height="500" style="" viewBox="0 0 700 500"><rect x="0" y="0" width="700" height="500" style="fill: rgb(255, 255, 255); fill-opacity: 1;"/><defs id="defs-b8d1ec"><g class="clips"/><g class="gradients"/><g class="patterns"/></defs><g class="bglayer"/><g class="layer-below"><g class="imagelayer"/><g class="shapelayer"/></g><g class="cartesianlayer"/><g class="polarlayer"/><g class="ternarylayer"/><g class="geolayer"/><g class="funnelarealayer"/><g class="pielayer"><g class="trace" stroke-linejoin="round" style="opacity: 1;"><g class="slice"><path class="surface" d="M378.47464881412026,335.37677889749955a90,90 0 1 0 -113.04698468485196,-54.594965998189195l-56.38155724715447,20.521208599540216a150,150 0 1 1 188.41164114141995,90.99160999698199Z" style="pointer-events: all; stroke-width: 0; fill: rgb(31, 119, 180); fill-opacity: 1; stroke: rgb(68, 68, 68); stroke-opacity: 1;"/><g class="slicetext"><text data-notex="1" class="slicetext" transform="translate(402.1155127591212,138.63681148307646)" text-anchor="middle" x="0" y="0" style="font-family: 'Open Sans', verdana, arial, sans-serif; font-size: 12px; fill: rgb(255, 255, 255); fill-opacity: 1; white-space: pre;"><tspan class="line" dy="0em" x="0" y="0">hg38</tspan><tspan class="line" dy="1.3em" x="0" y="0">611</tspan></text></g></g><g class="slice"><path class="surface" d="M265.4276641292683,280.7818128993103a90,90 0 0 0 48.92515692720768,51.85763671991437l-23.764785962349347,55.092966412816466a150,150 0 0 1 -81.5419282120128,-86.42939453319062Z" style="pointer-events: all; stroke-width: 0; fill: rgb(255, 127, 14); fill-opacity: 1; stroke: rgb(68, 68, 68); stroke-opacity: 1;"/><g class="slicetext"><text data-notex="1" class="slicetext" transform="translate(262.64485051123427,329.04430904424817)" text-anchor="middle" x="0" y="0" style="font-family: 'Open Sans', verdana, arial, sans-serif; font-size: 12px; fill: rgb(68, 68, 68); fill-opacity: 1; white-space: pre;"><tspan class="line" dy="0em" x="0" y="0">mm10</tspan><tspan class="line" dy="1.3em" x="0" y="0">105</tspan></text></g></g><g class="slice"><path class="surface" d="M314.352821056476,332.6394496192247a90,90 0 0 0 26.93420058023801,6.937802002160248l-5.808652242190673,59.718167747589966a150,150 0 0 1 -44.89033430039668,-11.563003336933747Z" style="pointer-events: all; stroke-width: 0; fill: rgb(44, 160, 44); fill-opacity: 1; stroke: rgb(68, 68, 68); stroke-opacity: 1;"/><g class="slicetext"><text data-notex="1" class="slicetext" transform="translate(291.603359641303,407.2440020038876)" text-anchor="middle" x="0" y="0" style="font-family: 'Open Sans', verdana, arial, sans-serif; font-size: 12px; fill: rgb(68, 68, 68); fill-opacity: 1; white-space: pre;"><tspan class="line" dy="0em" x="0" y="0">dm6</tspan><tspan class="line" dy="1.3em" x="0" y="0">40</tspan></text></g></g><g class="slice"><path class="surface" d="M341.287021636714,339.57725162138496a90,90 0 0 0 22.96443777043515,-0.712771063816956l9.500972938099428,59.24298703837866a150,150 0 0 1 -38.27406295072525,1.18795177302826Z" style="pointer-events: all; stroke-width: 0; fill: rgb(214, 39, 40); fill-opacity: 1; stroke: rgb(68, 68, 68); stroke-opacity: 1;"/><g class="slicetext"><text data-notex="1" class="slicetext" transform="translate(384.8995583242182,502.7770448827588)" text-anchor="middle" x="0" y="0" style="font-family: 'Open Sans', verdana, arial, sans-serif; font-size: 12px; fill: rgb(68, 68, 68); fill-opacity: 1; white-space: pre;"><tspan class="line" dy="0em" x="0" y="0">sacCer3</tspan><tspan class="line" dy="1.3em" x="0" y="0">33</tspan></text></g><path class="textline" stroke-width="1.5" d="M354.6534645742182,399.9278001821426V506.0817323827588h8.15234375" fill="none" style="stroke: rgb(68, 68, 68); stroke-opacity: 1;"/></g><g class="slice"><path class="surface" d="M364.2514594071491,338.86448055756796a90,90 0 0 0 5.483616769762259,-1.054875340988724l13.156717451274268,58.53973681105285a150,150 0 0 1 -9.139361282937099,1.75812556831454Z" style="pointer-events: all; stroke-width: 0; fill: rgb(148, 103, 189); fill-opacity: 1; stroke: rgb(68, 68, 68); stroke-opacity: 1;"/><g class="slicetext"><text data-notex="1" class="slicetext" transform="translate(407.28497064422123,470.1676698827588)" text-anchor="middle" x="0" y="0" style="font-family: 'Open Sans', verdana, arial, sans-serif; font-size: 12px; fill: rgb(68, 68, 68); fill-opacity: 1; white-space: pre;"><tspan class="line" dy="0em" x="0" y="0">galGal6</tspan><tspan class="line" dy="1.3em" x="0" y="0">8</tspan></text></g><path class="textline" stroke-width="1.5" d="M378.33575189422123,397.2993046982542V473.4723573827588h8.15234375" fill="none" style="stroke: rgb(68, 68, 68); stroke-opacity: 1;"/></g><g class="slice"><path class="surface" d="M369.7350761769114,337.80960521657926a90,90 0 0 0 4.736556470224351,-1.200487939102993l16.314421764757167,57.73941151831752a150,150 0 0 1 -7.894260783707253,2.000813231838322Z" style="pointer-events: all; stroke-width: 0; fill: rgb(140, 86, 75); fill-opacity: 1; stroke: rgb(68, 68, 68); stroke-opacity: 1;"/><g class="slicetext"><text data-notex="1" class="slicetext" transform="translate(422.09859890706366,437.5582948827588)" text-anchor="middle" x="0" y="0" style="font-family: 'Open Sans', verdana, arial, sans-serif; font-size: 12px; fill: rgb(68, 68, 68); fill-opacity: 1; white-space: pre;"><tspan class="line" dy="0em" x="0" y="0">danRer11</tspan><tspan class="line" dy="1.3em" x="0" y="0">7</tspan></text></g><path class="textline" stroke-width="1.5" d="M386.85250515706366,395.4025201420134V440.8629823827588h8.15234375" fill="none" style="stroke: rgb(68, 68, 68); stroke-opacity: 1;"/></g><g class="slice"><path class="surface" d="M374.4716326471358,336.6091172774763a90,90 0 0 0 4.003016166984492,-1.2323383799767327l18.983099209413496,56.91785259833303a150,150 0 0 1 -6.671693611640819,2.0538972999612213Z" style="pointer-events: all; stroke-width: 0; fill: rgb(227, 119, 194); fill-opacity: 1; stroke: rgb(68, 68, 68); stroke-opacity: 1;"/><g class="slicetext"><text data-notex="1" class="slicetext" transform="translate(415.3799445971145,404.9489198827588)" text-anchor="middle" x="0" y="0" style="font-family: 'Open Sans', verdana, arial, sans-serif; font-size: 12px; fill: rgb(68, 68, 68); fill-opacity: 1; white-space: pre;"><tspan class="line" dy="0em" x="0" y="0">ce11</tspan><tspan class="line" dy="1.3em" x="0" y="0">6</tspan></text></g></g></g></g><g class="iciclelayer"/><g class="treemaplayer"/><g class="sunburstlayer"/><g class="glimages"/><defs id="topdefs-b8d1ec"><g class="clips"/></defs><g class="layer-above"><g class="imagelayer"/><g class="shapelayer"/></g><g class="infolayer"><g class="g-gtitle"><text class="gtitle" x="105" y="50" text-anchor="start" dy="0em" style="font-family: 'Open Sans', verdana, arial, sans-serif; font-size: 17px; fill: rgb(68, 68, 68); opacity: 1; font-weight: normal; white-space: pre;">Genome</text></g></g></svg>