<svg class="main-svg" xmlns="http://www.w3.org/2000/svg" xmlns:xlink="http://www.w3.org/1999/xlink" width="700" height="500" style="" viewBox="0 0 700 500"><rect x="0" y="0" width="700" height="500" style="fill: rgb(255, 255, 255); fill-opacity: 1;"/><defs id="defs-275cfd"><g class="clips"/><g class="gradients"/><g class="patterns"/></defs><g class="bglayer"/><g class="layer-below"><g class="imagelayer"/><g class="shapelayer"/></g><g class="cartesianlayer"/><g class="polarlayer"/><g class="ternarylayer"/><g class="geolayer"/><g class="funnelarealayer"/><g class="pielayer"><g class="trace" stroke-linejoin="round" style="opacity: 1;"><g class="slice"><path class="surface" d="M371.2183041958486,337.46304114911874a90,90 0 1 0 -105.7906400665803,-56.68122824980839l-56.38155724715447,20.521208599540216a150,150 0 1 1 176.3177334443005,94.46871374968066Z" style="pointer-events: all; stroke-width: 0; fill: rgb(31, 119, 180); fill-opacity: 1; stroke: rgb(68, 68, 68); stroke-opacity: 1;"/><g class="slicetext"><text data-notex="1" class="slicetext" transform="translate(406.60221647272175,140.92090888629008)" text-anchor="middle" x="0" y="0" style="font-family: 'Open Sans', verdana, arial, sans-serif; font-size: 12px; fill: rgb(255, 255, 255); fill-opacity: 1; white-space: pre;"><tspan class="line" dy="0em" x="0" y="0">hg38</tspan><tspan class="line" dy="1.3em" x="0" y="0">532</tspan></text></g></g><g class="slice"><path class="surface" d="M265.4276641292683,280.7818128993103a90,90 0 0 0 39.57233587073179,47.160473441289206l-29.99999999999994,51.961524227066356a150,150 0 0 1 -65.95389311788632,-78.60078906881535Z" style="pointer-events: all; stroke-width: 0; fill: rgb(255, 127, 14); fill-opacity: 1; stroke: rgb(68, 68, 68); stroke-opacity: 1;"/><g class="slicetext"><text data-notex="1" class="slicetext" transform="translate(258.0043543257227,323.82982566238485)" text-anchor="middle" x="0" y="0" style="font-family: 'Open Sans', verdana, arial, sans-serif; font-size: 12px; fill: rgb(68, 68, 68); fill-opacity: 1; white-space: pre;"><tspan class="line" dy="0em" x="0" y="0">mm10</tspan><tspan class="line" dy="1.3em" x="0" y="0">77</tspan></text></g></g><g class="slice"><path class="surface" d="M305.0000000000001,327.94228634059954a90,90 0 0 0 24.973115943931738,9.80122575576462l-13.351256037378779,58.495674730909435a150,150 0 0 1 -41.6218599065529,-16.3353762596077Z" style="pointer-events: all; stroke-width: 0; fill: rgb(44, 160, 44); fill-opacity: 1; stroke: rgb(68, 68, 68); stroke-opacity: 1;"/><g class="slicetext"><text data-notex="1" class="slicetext" transform="translate(264.8121275950409,400.4548093923684)" text-anchor="middle" x="0" y="0" style="font-family: 'Open Sans', verdana, arial, sans-serif; font-size: 12px; fill: rgb(68, 68, 68); fill-opacity: 1; white-space: pre;"><tspan class="line" dy="0em" x="0" y="0">sacCer3</tspan><tspan class="line" dy="1.3em" x="0" y="0">33</tspan></text></g></g><g class="slice"><path class="surface" d="M329.9731159439318,337.74351209636416a90,90 0 0 0 24.30925648020513,2.1545484301065527l2.854914949424641,59.93204035098047a150,150 0 0 1 -40.51542746700855,-3.590914050177588Z" style="pointer-events: all; stroke-width: 0; fill: rgb(214, 39, 40); fill-opacity: 1; stroke: rgb(68, 68, 68); stroke-opacity: 1;"/><g class="slicetext"><text data-notex="1" class="slicetext" transform="translate(315.7768255674131,433.0641843923684)" text-anchor="middle" x="0" y="0" style="font-family: 'Open Sans', verdana, arial, sans-serif; font-size: 12px; fill: rgb(68, 68, 68); fill-opacity: 1; white-space: pre;"><tspan class="line" dy="0em" x="0" y="0">dm6</tspan><tspan class="line" dy="1.3em" x="0" y="0">30</tspan></text></g><path class="textline" stroke-width="1.5" d="M336.7572943174131,399.414292309017V436.3688718923684h-8.15234375" fill="none" style="stroke: rgb(68, 68, 68); stroke-opacity: 1;"/></g><g class="slice"><path class="surface" d="M354.28237242413695,339.8980605264707a90,90 0 0 0 6.503614738814422,-0.5467176103138854l7.190658108634256,59.56756194410455a150,150 0 0 1 -10.839357898024037,0.911196017189809Z" style="pointer-events: all; stroke-width: 0; fill: rgb(148, 103, 189); fill-opacity: 1; stroke: rgb(68, 68, 68); stroke-opacity: 1;"/><g class="slicetext"><text data-notex="1" class="slicetext" transform="translate(391.5144474694338,474.184486752955)" text-anchor="middle" x="0" y="0" style="font-family: 'Open Sans', verdana, arial, sans-serif; font-size: 12px; fill: rgb(68, 68, 68); fill-opacity: 1; white-space: pre;"><tspan class="line" dy="0em" x="0" y="0">galGal6</tspan><tspan class="line" dy="1.3em" x="0" y="0">8</tspan></text></g><path class="textline" stroke-width="1.5" d="M362.5652287194338,399.47279025705086V477.489174252955h8.15234375" fill="none" style="stroke: rgb(68, 68, 68); stroke-opacity: 1;"/></g><g class="slice"><path class="surface" d="M360.78598716295136,339.3513429161568a90,90 0 0 0 5.645296712591329,-0.8639827442015701l10.954189250361809,58.99157344797017a150,150 0 0 1 -9.408827854318883,1.4399712403359501Z" style="pointer-events: all; stroke-width: 0; fill: rgb(140, 86, 75); fill-opacity: 1; stroke: rgb(68, 68, 68); stroke-opacity: 1;"/><g class="slicetext"><text data-notex="1" class="slicetext" transform="translate(407.9385776526103,441.575111752955)" text-anchor="middle" x="0" y="0" style="font-family: 'Open Sans', verdana, arial, sans-serif; font-size: 12px; fill: rgb(68, 68, 68); fill-opacity: 1; white-space: pre;"><tspan class="line" dy="0em" x="0" y="0">danRer11</tspan><tspan class="line" dy="1.3em" x="0" y="0">7</tspan></text></g><path class="textline" stroke-width="1.5" d="M372.6924839026103,398.2735686976265V444.879799252955h8.15234375" fill="none" style="stroke: rgb(68, 68, 68); stroke-opacity: 1;"/></g><g class="slice"><path class="surface" d="M366.4312838755427,338.48736017195523a90,90 0 0 0 4.787020320305904,-1.0243190228365449l14.145536130565745,58.30869409941247a150,150 0 0 1 -7.97836720050984,1.7071983713942416Z" style="pointer-events: all; stroke-width: 0; fill: rgb(227, 119, 194); fill-opacity: 1; stroke: rgb(68, 68, 68); stroke-opacity: 1;"/><g class="slicetext"><text data-notex="1" class="slicetext" transform="translate(402.6323601137166,408.965736752955)" text-anchor="middle" x="0" y="0" style="font-family: 'Open Sans', verdana, arial, sans-serif; font-size: 12px; fill: rgb(68, 68, 68); fill-opacity: 1; white-space: pre;"><tspan class="line" dy="0em" x="0" y="0">ce11</tspan><tspan class="line" dy="1.3em" x="0" y="0">6</tspan></text></g></g></g></g><g class="iciclelayer"/><g class="treemaplayer"/><g class="sunburstlayer"/><g class="glimages"/><defs id="topdefs-275cfd"><g class="clips"/></defs><g class="layer-above"><g class="imagelayer"/><g class="shapelayer"/></g><g class="infolayer"><g class="g-gtitle"><text class="gtitle" x="105" y="50" text-anchor="start" dy="0em" style="font-family: 'Open Sans', verdana, arial, sans-serif; font-size: 17px; fill: rgb(68, 68, 68); opacity: 1; font-weight: normal; white-space: pre;">Genome</text></g></g></svg>